<?xml version="1.0" encoding="UTF-8" standalone="no"?>
<!DOCTYPE svg PUBLIC "-//W3C//DTD SVG 1.1//EN" "http://www.w3.org/Graphics/SVG/1.1/DTD/svg11.dtd">
<svg width="100%" height="100%" viewBox="0 0 2481 3508" version="1.1" xmlns="http://www.w3.org/2000/svg" xmlns:xlink="http://www.w3.org/1999/xlink" xml:space="preserve" xmlns:serif="http://www.serif.com/" style="fill-rule:evenodd;clip-rule:evenodd;stroke-linecap:round;stroke-linejoin:round;stroke-miterlimit:1.5;">
    <g transform="matrix(0.564026,0,0,0.668173,488.658,609.696)">
        <path d="M894.497,2372.45C594.768,2258.62 387.114,2012.85 387.114,1728.3C387.114,1666.25 396.991,1606.03 415.545,1548.63C583.76,1584.85 840.218,1677.71 624,1536C555.531,1491.12 500.696,1464.83 457.051,1450.45C476.694,1413.2 500.164,1377.57 527.063,1343.88C674.864,1383.61 1014.39,1577.45 795.148,1382.05C715.614,1311.17 654.286,1274.8 607.998,1257.65C643.836,1224.93 683.346,1194.89 726.005,1167.94C726.265,1167.99 726.527,1168.04 726.789,1168.09C853.709,1193.55 1240.46,1445.75 1017.99,1226.5C951.048,1160.53 896.911,1122.09 853.934,1100.6C894.022,1083.29 935.957,1068.4 979.437,1056.17C1007.63,1231.79 1177.18,1366.97 1381.86,1366.97C1553.94,1366.97 1701.2,1271.41 1760.49,1136.6C1997.09,1264.32 2152.99,1481.75 2152.99,1728.3C2152.99,1928.79 2049.91,2110.01 1884.17,2239.41C1928.86,2158.52 1954.14,2066.47 1954.14,1968.87C1954.14,1646.6 1678.48,1384.95 1338.94,1384.95C999.403,1384.95 723.741,1646.6 723.741,1968.87C723.741,2125.37 788.743,2267.57 894.497,2372.45Z" style="fill:rgb(242,163,67);"/>
        <g transform="matrix(1,0,0,1,-80.9745,-440.991)">
            <path d="M1965.15,2680.4C1806.19,2804.51 1589.59,2880.94 1351.03,2880.94C1216.76,2880.94 1089.46,2856.73 975.471,2813.44C869.718,2708.56 804.716,2566.36 804.716,2409.86C804.716,2087.59 1080.38,1825.94 1419.92,1825.94C1759.45,1825.94 2035.12,2087.59 2035.12,2409.86C2035.12,2507.47 2009.83,2599.51 1965.15,2680.4Z" style="fill:rgb(248,240,230);"/>
        </g>
        <path d="M415.545,1548.63C426.459,1514.86 440.376,1482.07 457.051,1450.45C500.696,1464.83 555.531,1491.12 624,1536C840.218,1677.71 583.76,1584.85 415.545,1548.63Z" style="fill:rgb(144,115,79);"/>
        <g transform="matrix(0.989098,0.147255,-0.147255,0.989098,404.135,-229.091)">
            <path d="M353.218,1537.73C372.758,1504.08 395.294,1471.58 420.572,1440.52C468.881,1450.66 534.895,1477.6 624,1536C869.625,1696.99 505.257,1555.25 353.218,1537.73Z" style="fill:rgb(144,115,79);"/>
        </g>
        <g transform="matrix(0.980474,0.196648,-0.196648,0.980474,708.225,-402.218)">
            <path d="M326.201,1536C360.463,1503.34 397.978,1472.81 438.391,1444.83C484.755,1457.44 545.392,1484.48 624,1536C885.245,1707.22 456.448,1536 327,1536C326.733,1536 326.466,1536 326.201,1536Z" style="fill:rgb(144,115,79);"/>
        </g>
        <g transform="matrix(0.859634,0,0,0.865618,-88.355,-264.131)">
            <path d="M2150.73,1618.18C2081.77,1773.92 1910.46,1884.32 1710.28,1884.32C1472.18,1884.32 1274.94,1728.15 1242.15,1525.27C1348.04,1495.7 1461.8,1479.63 1580.22,1479.63C1791.25,1479.63 1987.5,1530.68 2150.73,1618.18Z" style="fill:rgb(211,148,71);"/>
        </g>
    </g>
    <g transform="matrix(0.780244,0,0,0.780244,17.5582,76.6004)">
        <g transform="matrix(0.982203,-0.187825,0.187825,0.982203,-228.139,360.311)">
            <g transform="matrix(0.927133,-0.374733,0.374733,0.927133,414.304,838.899)">
                <path d="M845.364,504.56C856.903,492.792 872.969,485.947 890.062,486.252C914.557,486.688 936.42,501.722 945.594,524.439L1025.32,721.846L980.723,721.746L908.304,542.43C899.129,519.714 877.266,504.68 852.771,504.243C850.277,504.199 847.804,504.307 845.364,504.56Z" style="fill:rgb(242,163,67);"/>
            </g>
            <g transform="matrix(0.927133,-0.374733,0.374733,0.927133,386.473,869.554)">
                <path d="M1018.01,703.754L781.853,703.222L870.495,504.445C873.51,497.683 877.658,491.664 882.655,486.568C885.094,486.315 887.567,486.207 890.062,486.252C914.557,486.688 936.42,501.722 945.594,524.439L1018.01,703.754Z" style="fill:rgb(251,165,196);"/>
            </g>
            <g transform="matrix(1.0894,-0.294968,0.26135,0.965244,-413.823,901.702)">
                <ellipse cx="1562" cy="765.06" rx="116.928" ry="50.02" style="fill:rgb(242,163,67);"/>
            </g>
        </g>
        <g transform="matrix(0.86723,0,0,0.873267,161.721,172.379)">
            <ellipse cx="1710.28" cy="1465.49" rx="472.917" ry="418.825" style="fill:rgb(242,163,67);"/>
        </g>
        <g transform="matrix(-0.983187,-0.182601,-0.182601,0.983187,3519.32,351.772)">
            <g transform="matrix(0.927133,-0.374733,0.374733,0.927133,414.304,838.899)">
                <path d="M845.364,504.56C856.903,492.792 872.969,485.947 890.062,486.252C914.557,486.688 936.42,501.722 945.594,524.439L1025.32,721.846L980.723,721.746L908.304,542.43C899.129,519.714 877.266,504.68 852.771,504.243C850.277,504.199 847.804,504.307 845.364,504.56Z" style="fill:rgb(242,163,67);"/>
            </g>
            <g transform="matrix(0.927133,-0.374733,0.374733,0.927133,386.473,869.554)">
                <path d="M1018.01,703.754L781.853,703.222L870.495,504.445C873.51,497.683 877.658,491.664 882.655,486.568C885.094,486.315 887.567,486.207 890.062,486.252C914.557,486.688 936.42,501.722 945.594,524.439L1018.01,703.754Z" style="fill:rgb(251,165,196);"/>
            </g>
            <g transform="matrix(1.0894,-0.294968,0.26135,0.965244,-413.823,901.702)">
                <ellipse cx="1562" cy="765.06" rx="116.928" ry="50.02" style="fill:rgb(242,163,67);"/>
            </g>
        </g>
        <g transform="matrix(1,0,0,1,-50.7136,7.41486)">
            <path d="M1480.43,1560.91C1480.36,1560.08 1480.32,1559.24 1480.32,1558.38C1480.32,1541.9 1493.7,1528.51 1510.19,1528.51C1526.67,1528.51 1540.06,1541.9 1540.06,1558.38C1540.06,1574.61 1527.1,1587.83 1510.98,1588.24C1513.99,1584.85 1515.8,1580.51 1515.8,1575.78C1515.8,1564.9 1506.23,1556.08 1494.44,1556.08C1489.08,1556.08 1484.18,1557.9 1480.43,1560.91Z" style="stroke:rgb(242,163,67);stroke-width:1.28px;"/>
            <path d="M1510.98,1588.24C1510.72,1588.25 1510.45,1588.25 1510.19,1588.25C1494.56,1588.25 1481.71,1576.22 1480.43,1560.91C1484.18,1557.9 1489.08,1556.08 1494.44,1556.08C1506.23,1556.08 1515.8,1564.9 1515.8,1575.78C1515.8,1580.51 1513.99,1584.85 1510.98,1588.24Z" style="fill:white;"/>
        </g>
        <g transform="matrix(1,0,0,1,67.6859,7.41486)">
            <path d="M1480.43,1560.91C1480.36,1560.08 1480.32,1559.24 1480.32,1558.38C1480.32,1541.9 1493.7,1528.51 1510.19,1528.51C1526.67,1528.51 1540.06,1541.9 1540.06,1558.38C1540.06,1574.61 1527.1,1587.83 1510.98,1588.24C1513.99,1584.85 1515.8,1580.51 1515.8,1575.78C1515.8,1564.9 1506.23,1556.08 1494.44,1556.08C1489.08,1556.08 1484.18,1557.9 1480.43,1560.91Z" style="stroke:rgb(242,163,67);stroke-width:1.28px;"/>
            <path d="M1510.98,1588.24C1510.72,1588.25 1510.45,1588.25 1510.19,1588.25C1494.56,1588.25 1481.71,1576.22 1480.43,1560.91C1484.18,1557.9 1489.08,1556.08 1494.44,1556.08C1506.23,1556.08 1515.8,1564.9 1515.8,1575.78C1515.8,1580.51 1513.99,1584.85 1510.98,1588.24Z" style="fill:white;"/>
        </g>
        <g transform="matrix(1,0,0,1,1160.85,562.824)">
            <g transform="matrix(-1,-1.22465e-16,1.22465e-16,-1,695.548,2213.22)">
                <path d="M347.774,1080.19C347.774,1080.19 347.774,1080.19 347.774,1080.19C357.019,1080.19 380.13,1124.22 375.508,1133.02C370.885,1141.83 324.663,1141.83 320.041,1133.02C315.419,1124.22 338.53,1080.19 347.774,1080.19Z" style="fill:rgb(163,114,131);"/>
            </g>
            <g transform="matrix(1,0,0,1,198.887,-100.687)">
                <path d="M162.522,1185.95C161.376,1187.91 160.445,1191 160.445,1194.35C160.445,1197.7 161.376,1200.79 162.522,1202.75C158.701,1202.75 155.599,1198.98 155.599,1194.35C155.599,1189.71 158.701,1185.95 162.522,1185.95Z" style="fill:rgb(163,114,131);"/>
            </g>
            <g transform="matrix(-1,0,0,1,497.563,-100.695)">
                <path d="M162.522,1185.95C161.376,1187.91 160.445,1191 160.445,1194.35C160.445,1197.7 161.376,1200.79 162.522,1202.75C158.701,1202.75 155.599,1198.98 155.599,1194.35C155.599,1189.71 158.701,1185.95 162.522,1185.95Z" style="fill:rgb(163,114,131);"/>
            </g>
        </g>
    </g>
</svg>
