<?xml version="1.0" encoding="UTF-8" standalone="no"?>
<!DOCTYPE svg PUBLIC "-//W3C//DTD SVG 1.1//EN" "http://www.w3.org/Graphics/SVG/1.1/DTD/svg11.dtd">
<svg width="100%" height="100%" viewBox="0 0 2481 3508" version="1.1" xmlns="http://www.w3.org/2000/svg" xmlns:xlink="http://www.w3.org/1999/xlink" xml:space="preserve" xmlns:serif="http://www.serif.com/" style="fill-rule:evenodd;clip-rule:evenodd;stroke-linecap:round;stroke-linejoin:round;stroke-miterlimit:1.5;">
    <g transform="matrix(1,0,0,1.07379,-22.25,-175.679)">
        <ellipse cx="1226" cy="1906.5" rx="897" ry="650.5" style="fill:rgb(238,187,49);"/>
    </g>
    <g transform="matrix(1,0,0,1,100,7)">
        <circle cx="432.5" cy="2225.5" r="111.5" style="fill:rgb(255,210,159);"/>
        <clipPath id="_clip1">
            <circle cx="432.5" cy="2225.5" r="111.5"/>
        </clipPath>
        <g clip-path="url(#_clip1)">
            <g transform="matrix(1,0,0,1,147,387)">
                <ellipse cx="325.5" cy="1838.5" rx="71.5" ry="69.5" style="fill:rgb(229,183,131);"/>
            </g>
        </g>
    </g>
    <g transform="matrix(-1,0,0,1,2342,7)">
        <circle cx="432.5" cy="2225.5" r="111.5" style="fill:rgb(255,210,159);"/>
        <clipPath id="_clip2">
            <circle cx="432.5" cy="2225.5" r="111.5"/>
        </clipPath>
        <g clip-path="url(#_clip2)">
            <g transform="matrix(1,0,0,1,147,387)">
                <ellipse cx="325.5" cy="1838.5" rx="71.5" ry="69.5" style="fill:rgb(229,183,131);"/>
            </g>
        </g>
    </g>
    <g transform="matrix(1,0,0,0.875543,0,323.465)">
        <path d="M577,2372.72L577,1585.74C577,1395.05 712.546,1240.24 879.5,1240.24L1562.5,1240.24C1729.45,1240.24 1865,1395.05 1865,1585.74L1865,2372.72C1865,2505.01 1729.45,2612.42 1562.5,2612.42L879.5,2612.42C712.546,2612.42 577,2505.01 577,2372.72Z" style="fill:rgb(255,210,159);"/>
    </g>
    <g transform="matrix(1,0,0,0.875543,0,323.465)">
        <path d="M1820.79,2497.48C1767.63,2566.39 1671.8,2612.42 1562.5,2612.42L879.5,2612.42C712.546,2612.42 577,2505.01 577,2372.72L577,1585.74C577,1484.59 615.139,1393.54 675.874,1330.33C626.885,1391.73 597,1473.36 597,1562.9L597,2349.88C597,2482.17 732.546,2589.58 899.5,2589.58L1582.5,2589.58C1679.22,2589.58 1765.4,2553.53 1820.79,2497.48Z" style="fill:rgb(231,184,131);"/>
    </g>
    <g transform="matrix(1,0,0,1,-19.1575,-2)">
        <g transform="matrix(-1,-1.249e-16,1.249e-16,-1,2464.24,4861.48)">
            <path d="M1294.14,2489.48L1154.02,2489.48C1135.44,2479.54 1125,2466.06 1125,2452C1125,2422.75 1169.4,2399 1224.08,2399C1278.76,2399 1323.16,2422.75 1323.16,2452C1323.16,2466.06 1312.72,2479.54 1294.14,2489.48Z" style="fill:rgb(64,41,7);"/>
        </g>
        <g transform="matrix(-0.370588,-4.78194e-17,1.23367e-16,-1,1676.54,4867.48)">
            <path d="M1181.58,2489.48L1181.58,2475.23C1181.58,2470.95 1185.05,2467.48 1189.33,2467.48L1258.83,2467.48C1263.11,2467.48 1266.58,2470.95 1266.58,2475.23L1266.58,2489.48L1181.58,2489.48Z" style="fill:white;"/>
        </g>
        <g transform="matrix(-0.370588,-4.78194e-17,1.23367e-16,-1,1711.04,4867.48)">
            <path d="M1181.58,2489.48L1181.58,2475.23C1181.58,2470.95 1185.05,2467.48 1189.33,2467.48L1258.83,2467.48C1263.11,2467.48 1266.58,2470.95 1266.58,2475.23L1266.58,2489.48L1181.58,2489.48Z" style="fill:white;"/>
        </g>
        <g transform="matrix(1,0,0,0.862101,-1.69384,333.335)">
            <path d="M1185.8,2453.78C1190.34,2433.05 1213.79,2417.24 1242,2417.24C1269.64,2417.24 1292.72,2432.42 1297.91,2452.54C1281.64,2458.79 1261.7,2462.48 1240.16,2462.48C1220.09,2462.48 1201.41,2459.28 1185.8,2453.78Z" style="fill:rgb(213,122,103);"/>
        </g>
    </g>
    <g transform="matrix(-0.951014,1.16466e-16,-1.11869e-16,-0.913483,1248.78,4753.87)">
        <path d="M771.129,3078.32C768.938,3092.69 761.341,3105.56 750.015,3114.08C738.69,3122.61 724.569,3126.09 710.775,3123.75C594.394,3104.05 270.756,3049.24 267.158,3048.63C267.054,3048.61 266.95,3048.59 266.846,3048.58C138.773,3027.68 90.474,2928.97 90.474,2882.23C90.474,2735.14 223.644,2658.14 387,2660C542.111,2661.77 616.086,2795.97 708.236,2904.12C766.818,2972.87 778.027,3033.63 771.129,3078.32Z" style="fill:white;fill-opacity:0.52;stroke:rgb(64,41,7);stroke-width:26.81px;"/>
    </g>
    <g transform="matrix(0.951014,1.16466e-16,1.11869e-16,-0.913483,1193.22,4753.87)">
        <path d="M771.129,3078.32C768.938,3092.69 761.341,3105.56 750.015,3114.08C738.69,3122.61 724.569,3126.09 710.775,3123.75C594.394,3104.05 270.756,3049.24 267.158,3048.63C267.054,3048.61 266.95,3048.59 266.846,3048.58C138.773,3027.68 90.474,2928.97 90.474,2882.23C90.474,2735.14 223.644,2658.14 387,2660C542.111,2661.77 616.086,2795.97 708.236,2904.12C766.818,2972.87 778.027,3033.63 771.129,3078.32Z" style="fill:white;fill-opacity:0.52;stroke:rgb(64,41,7);stroke-width:26.81px;"/>
    </g>
    <g transform="matrix(6.12323e-17,1,-1.17508,7.19528e-17,3454.82,1957.88)">
        <path d="M211,1846C206.529,1858.83 202.9,1879.06 202.9,1901C202.9,1922.94 206.529,1943.17 211,1956C196.098,1956 184,1931.36 184,1901C184,1870.64 196.098,1846 211,1846Z" style="fill:rgb(64,41,7);"/>
    </g>
    <g transform="matrix(1,0,0,1,-59.7812,-1.36242)">
        <g transform="matrix(0.786207,0,0,0.786207,430.109,1543.24)">
            <circle cx="649.5" cy="797.5" r="72.5" style="fill:rgb(34,170,190);"/>
        </g>
        <g transform="matrix(1,0,0,1,86.75,241)">
            <ellipse cx="834" cy="1918.5" rx="20" ry="19.5" style="fill:white;"/>
        </g>
        <g transform="matrix(0.475,0,0,0.475,554.1,1276.98)">
            <ellipse cx="834" cy="1918.5" rx="20" ry="19.5" style="fill:white;"/>
        </g>
    </g>
    <g transform="matrix(1,0,0,1,620.281,-1.36242)">
        <g transform="matrix(0.786207,0,0,0.786207,430.109,1543.24)">
            <circle cx="649.5" cy="797.5" r="72.5" style="fill:rgb(34,170,190);"/>
        </g>
        <g transform="matrix(1,0,0,1,86.75,241)">
            <ellipse cx="834" cy="1918.5" rx="20" ry="19.5" style="fill:white;"/>
        </g>
        <g transform="matrix(0.475,0,0,0.475,554.1,1276.98)">
            <ellipse cx="834" cy="1918.5" rx="20" ry="19.5" style="fill:white;"/>
        </g>
    </g>
    <g transform="matrix(1.08017,0,0,1.08017,1005.66,-115.954)">
        <path d="M238.707,2213.63C239.38,2213.54 240.064,2213.5 240.756,2213.5C251.377,2213.5 260,2223.64 260,2236.12C260,2248.61 251.377,2258.75 240.756,2258.75C236.9,2258.75 233.306,2257.41 230.294,2255.11C222.549,2261.82 211.613,2266 199.5,2266C187.969,2266 177.504,2262.21 169.844,2256.06C167.134,2257.78 164.035,2258.75 160.744,2258.75C150.123,2258.75 141.5,2248.61 141.5,2236.12C141.5,2223.64 150.123,2213.5 160.744,2213.5C161.377,2213.5 162.002,2213.54 162.62,2213.61C162.644,2213.57 162.669,2213.53 162.694,2213.5L162.793,2213.5L162.793,2227.26L238.707,2227.26L238.707,2213.63Z" style="fill:rgb(213,122,103);"/>
    </g>
    <g transform="matrix(1,0,0,1,1021.75,61.5)">
        <path d="M169.844,2256.06C167.134,2257.78 164.035,2258.75 160.744,2258.75C150.123,2258.75 141.5,2248.61 141.5,2236.12C141.5,2223.64 150.123,2213.5 160.744,2213.5C161.377,2213.5 162.002,2213.54 162.62,2213.61C162.644,2213.57 162.669,2213.53 162.694,2213.5L236.306,2213.5C236.426,2213.67 236.544,2213.84 236.66,2214.01C237.98,2213.68 239.351,2213.5 240.756,2213.5C251.377,2213.5 260,2223.64 260,2236.12C260,2248.61 251.377,2258.75 240.756,2258.75C236.9,2258.75 233.306,2257.41 230.294,2255.11C222.549,2261.82 211.613,2266 199.5,2266C187.969,2266 177.504,2262.21 169.844,2256.06Z" style="fill:rgb(255,210,159);"/>
    </g>
    <g transform="matrix(1,0,0,1,43.2489,-228.97)">
        <path d="M1154.75,1380.65C1210.49,1311.35 1295.98,1266.97 1391.75,1266.97C1543.57,1266.97 1669.54,1378.5 1692.14,1524.03C1717.08,1514.31 1744.21,1508.97 1772.58,1508.97C1895.01,1508.97 1994.4,1608.37 1994.4,1730.8C1994.4,1853.23 1895.01,1952.62 1772.58,1952.62C1681.16,1952.62 1602.59,1897.21 1568.65,1818.17C1518.8,1853.92 1457.71,1874.97 1391.75,1874.97C1329.12,1874.97 1270.89,1855.99 1222.5,1823.47C1092.87,2095.11 273,2088 273,2088C270.502,2087.74 102.878,2301.19 121,2221C139.122,2140.81 235.573,1833.01 240,1834C244.427,1834.99 383.141,1460.55 577,1265C770.859,1069.45 1049.34,1254.22 1051,1255C1051.8,1255.37 1104.67,1299.1 1154.75,1380.65Z" style="fill:rgb(238,187,49);"/>
    </g>
    <g transform="matrix(1,0,0,1,43.2489,-228.97)">
        <path d="M1975.86,1819.66C1941.57,1897.91 1863.41,1952.62 1772.58,1952.62C1681.16,1952.62 1602.59,1897.21 1568.65,1818.17C1518.8,1853.92 1457.71,1874.97 1391.75,1874.97C1329.12,1874.97 1270.89,1855.99 1222.5,1823.47C1092.87,2095.11 273,2088 273,2088C270.502,2087.74 102.878,2301.19 121,2221C139.122,2140.81 235.573,1833.01 240,1834C242.226,1834.5 278.414,1740.05 338.497,1621.15C284.415,1730.46 252.1,1814.47 250,1814C245.573,1813.01 149.122,2120.81 131,2201C112.878,2281.19 280.502,2067.74 283,2068C283,2068 1102.87,2075.11 1232.5,1803.47C1280.89,1835.99 1339.12,1854.97 1401.75,1854.97C1467.71,1854.97 1528.8,1833.92 1578.65,1798.17C1612.59,1877.21 1691.16,1932.62 1782.58,1932.62C1865.46,1932.62 1937.78,1887.07 1975.86,1819.66Z" style="fill:rgb(193,156,54);"/>
    </g>
</svg>
