<?xml version="1.0" encoding="UTF-8" standalone="no"?>
<!DOCTYPE svg PUBLIC "-//W3C//DTD SVG 1.1//EN" "http://www.w3.org/Graphics/SVG/1.1/DTD/svg11.dtd">
<svg width="100%" height="100%" viewBox="0 0 2481 3508" version="1.1" xmlns="http://www.w3.org/2000/svg" xmlns:xlink="http://www.w3.org/1999/xlink" xml:space="preserve" xmlns:serif="http://www.serif.com/" style="fill-rule:evenodd;clip-rule:evenodd;stroke-linecap:round;stroke-linejoin:round;stroke-miterlimit:1.5;">
    <g transform="matrix(1,0,0,1,100,7)">
        <circle cx="432.5" cy="2225.5" r="111.5" style="fill:rgb(255,210,159);"/>
        <clipPath id="_clip1">
            <circle cx="432.5" cy="2225.5" r="111.5"/>
        </clipPath>
        <g clip-path="url(#_clip1)">
            <g transform="matrix(1,0,0,1,147,387)">
                <ellipse cx="325.5" cy="1838.5" rx="71.5" ry="69.5" style="fill:rgb(229,183,131);"/>
            </g>
        </g>
    </g>
    <g transform="matrix(-1,0,0,1,2342,7)">
        <circle cx="432.5" cy="2225.5" r="111.5" style="fill:rgb(255,210,159);"/>
        <clipPath id="_clip2">
            <circle cx="432.5" cy="2225.5" r="111.5"/>
        </clipPath>
        <g clip-path="url(#_clip2)">
            <g transform="matrix(1,0,0,1,147,387)">
                <ellipse cx="325.5" cy="1838.5" rx="71.5" ry="69.5" style="fill:rgb(229,183,131);"/>
            </g>
        </g>
    </g>
    <g transform="matrix(1,0,0,0.875543,0,323.465)">
        <path d="M577,2372.72L577,1585.74C577,1395.05 712.546,1240.24 879.5,1240.24L1562.5,1240.24C1729.45,1240.24 1865,1395.05 1865,1585.74L1865,2372.72C1865,2505.01 1729.45,2612.42 1562.5,2612.42L879.5,2612.42C712.546,2612.42 577,2505.01 577,2372.72Z" style="fill:rgb(255,210,159);"/>
    </g>
    <g transform="matrix(0.927374,0,0,0.823965,171.676,1506.58)">
        <path d="M1205.88,958.502L1057.12,958.502C1047.26,944.594 1042,928.235 1042,911.5C1042,864.863 1082.1,827 1131.5,827C1180.9,827 1221,864.863 1221,911.5C1221,928.235 1215.74,944.594 1205.88,958.502Z" style="fill:rgb(213,122,103);"/>
        <clipPath id="_clip3">
            <path d="M1205.88,958.502L1057.12,958.502C1047.26,944.594 1042,928.235 1042,911.5C1042,864.863 1082.1,827 1131.5,827C1180.9,827 1221,864.863 1221,911.5C1221,928.235 1215.74,944.594 1205.88,958.502Z"/>
        </clipPath>
        <g clip-path="url(#_clip3)">
            <g transform="matrix(0.89759,0,0,0.992819,115.877,18.0754)">
                <path d="M1209.01,953.75L1053.99,953.75C1046.13,940.904 1042,926.333 1042,911.5C1042,864.863 1082.1,827 1131.5,827C1180.9,827 1221,864.863 1221,911.5C1221,926.333 1216.87,940.904 1209.01,953.75Z" style="fill:rgb(255,210,159);"/>
            </g>
            <g transform="matrix(1.07831,0,0,1.21364,-179.275,-1604.93)">
                <ellipse cx="1188" cy="2070.5" rx="6" ry="12.5" style="fill:rgb(64,41,7);"/>
            </g>
            <g transform="matrix(1.07831,0,0,1.21364,-119.798,-1604.93)">
                <ellipse cx="1188" cy="2070.5" rx="6" ry="12.5" style="fill:rgb(64,41,7);"/>
            </g>
        </g>
    </g>
    <g transform="matrix(1.00233,0,0,0.875725,-4.34394,323.239)">
        <path d="M621.294,1409.99C610.699,1436.35 604.935,1464.7 604.935,1494.22L604.935,2072.73C604.935,2169.98 734.916,2248.94 895.016,2248.94L1549.98,2248.94C1710.08,2248.94 1840.06,2169.98 1840.06,2072.73L1840.06,1494.22C1840.06,1467.03 1835.17,1440.82 1826.11,1416.26C1850.87,1466.34 1865,1524.17 1865,1585.74L1865,2372.72C1865,2505.01 1729.45,2612.42 1562.5,2612.42L879.5,2612.42C712.546,2612.42 577,2505.01 577,2372.72L577,1585.74C577,1521.59 592.342,1461.49 619.062,1409.99L621.294,1409.99Z" style="fill:rgb(204,181,155);"/>
    </g>
    <g transform="matrix(1.00233,0,0,0.875725,-4.34394,323.239)">
        <path d="M1820.94,2497.28C1767.81,2566.3 1671.9,2612.42 1562.5,2612.42L879.5,2612.42C712.546,2612.42 577,2505.01 577,2372.72L577,1585.74C577,1521.59 592.342,1461.49 619.062,1409.99L621.294,1409.99C612.137,1432.77 606.589,1457.04 605.251,1482.26C599.827,1508.14 596.954,1535.14 596.954,1562.9L596.954,2349.88C596.954,2482.18 732.499,2589.58 899.454,2589.58L1582.45,2589.58C1679.29,2589.58 1765.56,2553.45 1820.94,2497.28Z" style="fill:rgb(154,129,101);"/>
    </g>
    <g transform="matrix(1,0,0,1,-19.1575,-2)">
        <g transform="matrix(-1,-1.249e-16,1.249e-16,-1,2464.24,4861.48)">
            <path d="M1294.14,2489.48L1154.02,2489.48C1135.44,2479.54 1125,2466.06 1125,2452C1125,2422.75 1169.4,2399 1224.08,2399C1278.76,2399 1323.16,2422.75 1323.16,2452C1323.16,2466.06 1312.72,2479.54 1294.14,2489.48Z" style="fill:rgb(64,41,7);"/>
        </g>
        <g transform="matrix(-1,-1.249e-16,1.249e-16,-1,2464.24,4867.48)">
            <path d="M1181.58,2489.48L1181.58,2475.23C1181.58,2470.95 1185.05,2467.48 1189.33,2467.48L1258.83,2467.48C1263.11,2467.48 1266.58,2470.95 1266.58,2475.23L1266.58,2489.48L1181.58,2489.48Z" style="fill:white;"/>
        </g>
        <g transform="matrix(1,0,0,0.862101,-1.69384,333.335)">
            <path d="M1185.8,2453.78C1190.34,2433.05 1213.79,2417.24 1242,2417.24C1269.64,2417.24 1292.72,2432.42 1297.91,2452.54C1281.64,2458.79 1261.7,2462.48 1240.16,2462.48C1220.09,2462.48 1201.41,2459.28 1185.8,2453.78Z" style="fill:rgb(213,122,103);"/>
        </g>
    </g>
    <g transform="matrix(-0.951014,1.16466e-16,-1.11869e-16,-0.913483,1206.04,4753.87)">
        <path d="M660.53,3028.35C651.857,3047.48 633.363,3059.68 613.046,3059.68C522.065,3059.75 251.935,3059.75 160.954,3059.75C140.611,3059.75 122.094,3047.53 113.41,3028.38C98.683,2996.16 91,2961.56 91,2926.5C91,2779.41 223.633,2660 387,2660C550.367,2660 683,2779.41 683,2926.5C683,2961.56 675.317,2996.16 660.53,3028.35Z" style="fill:white;fill-opacity:0.52;stroke:rgb(62,61,61);stroke-width:26.81px;"/>
    </g>
    <g transform="matrix(-0.951014,1.16466e-16,-1.11869e-16,-0.913483,1972.04,4753.87)">
        <path d="M660.53,3028.35C651.857,3047.48 633.363,3059.68 613.046,3059.68C522.065,3059.75 251.935,3059.75 160.954,3059.75C140.611,3059.75 122.094,3047.53 113.41,3028.38C98.683,2996.16 91,2961.56 91,2926.5C91,2779.41 223.633,2660 387,2660C550.367,2660 683,2779.41 683,2926.5C683,2961.56 675.317,2996.16 660.53,3028.35Z" style="fill:white;fill-opacity:0.52;stroke:rgb(62,61,61);stroke-width:26.81px;"/>
    </g>
    <g transform="matrix(9.67775e-17,1.5805,-1.27838,7.82781e-17,4588.89,1712.78)">
        <path d="M267,2542C263.357,2563.58 260.4,2597.6 260.4,2634.5C260.4,2671.4 263.357,2705.42 267,2727C254.858,2727 245,2685.55 245,2634.5C245,2583.45 254.858,2542 267,2542Z" style="stroke:rgb(62,61,61);stroke-width:17.39px;"/>
    </g>
    <g transform="matrix(1,0,0,1,-38.8125,0)">
        <g transform="matrix(0.786207,0,0,0.786207,430.109,1543.24)">
            <circle cx="649.5" cy="797.5" r="72.5" style="fill:rgb(64,41,7);"/>
        </g>
        <g transform="matrix(1,0,0,1,86.75,241)">
            <ellipse cx="834" cy="1918.5" rx="20" ry="19.5" style="fill:white;"/>
        </g>
        <g transform="matrix(0.475,0,0,0.475,554.1,1276.98)">
            <ellipse cx="834" cy="1918.5" rx="20" ry="19.5" style="fill:white;"/>
        </g>
    </g>
    <g transform="matrix(1,0,0,1,599.313,0)">
        <g transform="matrix(0.786207,0,0,0.786207,430.109,1543.24)">
            <circle cx="649.5" cy="797.5" r="72.5" style="fill:rgb(64,41,7);"/>
        </g>
        <g transform="matrix(1,0,0,1,86.75,241)">
            <ellipse cx="834" cy="1918.5" rx="20" ry="19.5" style="fill:white;"/>
        </g>
        <g transform="matrix(0.475,0,0,0.475,554.1,1276.98)">
            <ellipse cx="834" cy="1918.5" rx="20" ry="19.5" style="fill:white;"/>
        </g>
    </g>
</svg>
